<?xml version="1.0" standalone="no"?>
<!DOCTYPE svg PUBLIC "-//W3C//DTD SVG 20010904//EN"
 "http://www.w3.org/TR/2001/REC-SVG-20010904/DTD/svg10.dtd">
<svg version="1.0" xmlns="http://www.w3.org/2000/svg"
 width="758.000000pt" height="411.000000pt" viewBox="0 0 758.000000 411.000000"
 preserveAspectRatio="xMidYMid meet">
<metadata>
Created by potrace 1.15, written by Peter Selinger 2001-2017
</metadata>
<g transform="translate(0.000000,411.000000) scale(0.100000,-0.100000)"
fill="#000000" stroke="none">
<path d="M515 3947 c-117 -32 -203 -93 -266 -190 -72 -111 -69 -42 -69 -1499
0 -1056 3 -1312 14 -1353 44 -166 172 -290 334 -324 29 -6 105 -11 167 -11
l115 0 0 -245 c0 -135 3 -245 8 -245 4 0 70 36 146 80 77 45 144 79 150 77 6
-3 73 -41 149 -85 l137 -81 0 250 0 249 885 0 c872 0 885 0 905 20 20 20 20
33 20 1303 0 1092 -2 1286 -14 1303 -14 19 -42 19 -1333 24 l-1318 5 -57 28
c-70 34 -140 110 -162 174 -20 60 -20 146 0 206 22 64 93 140 161 172 l55 27
1229 -2 1228 -1 16 25 c19 28 11 72 -14 85 -10 6 -544 12 -1226 15 -989 5
-1219 3 -1260 -7z m-83 -807 c24 -10 64 -24 91 -30 l47 -12 0 -1200 0 -1200
-27 7 c-56 13 -116 51 -158 97 -80 89 -75 3 -75 1281 l0 1139 39 -31 c22 -17
59 -40 83 -51z m2648 -1245 l0 -1205 -1212 2 -1213 3 -3 1190 c-1 655 0 1196
3 1203 3 9 256 12 1215 12 l1210 0 0 -1205z"/>
<path d="M672 2281 c2 -4 45 -110 97 -235 80 -191 98 -226 115 -226 18 0 35
35 111 217 50 119 93 224 97 235 6 14 3 18 -16 18 -21 0 -32 -21 -106 -202
-45 -112 -83 -204 -85 -206 -1 -1 -40 90 -86 203 -75 186 -86 205 -107 205
-13 0 -22 -4 -20 -9z"/>
<path d="M1170 2055 c0 -228 1 -235 20 -235 18 0 20 7 20 85 l0 85 73 0 72 0
53 -85 c44 -70 58 -85 79 -85 l25 0 -23 38 c-12 20 -35 56 -50 78 -37 55 -38
62 -9 77 67 34 92 141 47 208 -37 55 -76 69 -199 69 l-108 0 0 -235z m229 182
c66 -33 76 -123 21 -179 -28 -28 -32 -29 -117 -26 l-88 3 -3 108 -3 107 83 0
c46 0 94 -6 107 -13z"/>
<path d="M1600 2055 c0 -228 1 -235 20 -235 19 0 20 7 20 235 0 228 -1 235
-20 235 -19 0 -20 -7 -20 -235z"/>
<path d="M1760 2055 l0 -235 160 0 c153 0 160 1 160 20 0 19 -7 20 -135 20
l-135 0 0 90 0 90 116 0 c105 0 115 2 112 18 -3 15 -18 17 -116 20 l-112 3 0
84 0 85 130 0 c123 0 130 1 130 20 0 19 -7 20 -155 20 l-155 0 0 -235z"/>
<path d="M2167 2283 c-4 -3 -7 -109 -7 -235 l0 -228 25 0 25 0 0 191 0 191
151 -188 c85 -106 159 -190 170 -192 18 -3 19 6 19 232 0 228 -1 236 -20 236
-19 0 -20 -8 -22 -194 l-3 -194 -154 194 c-144 181 -167 205 -184 187z"/>
<path d="M2678 2284 c-5 -4 -8 -110 -8 -236 l0 -228 99 0 c111 0 170 16 215
58 113 106 82 331 -54 389 -38 17 -240 30 -252 17z m219 -49 c50 -21 72 -42
94 -90 35 -76 21 -174 -34 -233 -37 -39 -80 -52 -169 -52 l-68 0 0 195 0 195
70 0 c41 0 86 -6 107 -15z"/>
<path d="M582 3678 c-16 -16 -15 -33 4 -52 14 -14 140 -16 1238 -16 937 0
1225 3 1234 12 16 16 15 33 -4 52 -14 14 -140 16 -1238 16 -937 0 -1225 -3
-1234 -12z"/>
<path d="M585 3431 c-15 -17 -17 -26 -9 -39 16 -24 250 -29 1491 -31 926 -1
1033 1 1047 15 20 19 20 38 2 53 -10 9 -342 13 -1262 18 l-1249 6 -20 -22z"/>
<path d="M5110 2345 l0 -65 85 0 85 0 0 65 0 65 -85 0 -85 0 0 -65z"/>
<path d="M7100 2305 c0 -58 -1 -105 -3 -105 -2 0 -25 7 -51 16 -55 19 -136 15
-183 -9 -45 -24 -84 -67 -112 -127 -22 -47 -26 -69 -26 -145 1 -133 42 -216
130 -256 69 -32 146 -19 223 37 21 16 22 16 22 -10 l0 -26 85 0 85 0 0 365 0
365 -85 0 -85 0 0 -105z m-22 -201 c21 -6 22 -10 22 -145 l0 -138 -30 -16
c-59 -30 -129 -14 -155 36 -13 24 -16 52 -13 116 3 83 4 85 40 119 38 35 79
43 136 28z"/>
<path d="M3860 2303 c16 -43 73 -201 127 -350 l98 -273 100 0 100 0 98 273
c54 149 111 307 127 350 l29 77 -93 0 -92 0 -23 -72 c-13 -40 -51 -151 -84
-247 l-61 -175 -18 55 c-10 30 -48 141 -84 247 l-66 192 -93 0 -94 0 29 -77z"/>
<path d="M5607 2220 c-55 -14 -87 -33 -129 -77 -89 -92 -101 -251 -28 -366 22
-35 43 -52 96 -78 65 -32 74 -34 179 -34 77 0 127 5 168 18 l57 18 0 69 c0 39
-2 70 -4 70 -2 0 -29 -12 -60 -26 -138 -63 -287 -30 -311 69 l-7 27 197 0 198
0 -6 78 c-7 112 -42 173 -121 214 -45 23 -169 33 -229 18z m154 -129 c17 -17
29 -40 29 -55 l0 -26 -111 0 -111 0 7 28 c20 81 127 111 186 53z"/>
<path d="M6349 2217 c-20 -8 -50 -24 -68 -36 l-31 -22 0 25 c0 26 0 26 -85 26
l-85 0 0 -265 0 -265 85 0 85 0 0 191 0 190 35 15 c43 18 96 18 119 1 26 -19
35 -83 36 -249 l0 -148 81 0 80 0 -3 224 c-3 245 -4 250 -70 299 -33 24 -130
32 -179 14z"/>
<path d="M4630 1945 l0 -265 85 0 85 0 0 175 c0 158 2 176 18 183 9 4 56 7
105 7 l87 0 0 83 0 82 -37 0 c-39 0 -135 -39 -147 -59 -14 -22 -26 -10 -26 24
l0 35 -85 0 -85 0 0 -265z"/>
<path d="M5110 1945 l0 -265 85 0 85 0 0 265 0 265 -85 0 -85 0 0 -265z"/>
</g>
</svg>
